<?xml version="1.0" encoding="UTF-8"?>
<svg width="322px" height="50px" viewBox="0 0 322 50" version="1.1" xmlns="http://www.w3.org/2000/svg" xmlns:xlink="http://www.w3.org/1999/xlink">
    <!-- Generator: Sketch 52.2 (67145) - http://www.bohemiancoding.com/sketch -->
    <title>分组</title>
    <desc>Created with Sketch.</desc>
    <g id="模版页面" stroke="none" stroke-width="1" fill="none" fill-rule="evenodd">
        <g id="登录页" transform="translate(-551.000000, -185.000000)">
            <g id="分组" transform="translate(551.000000, 185.000000)">
                <path d="M75.984576,18.0006615 L75.8622327,21.2460709 L69.5585957,21.2460709 L69.4226321,27.3952675 L65.7805307,27.3952675 L65.9164943,21.2460709 L59.7529381,21.2460709 L59.8752814,18.0006615 L66.0388376,18.0006615 L66.1748012,11.8514649 L69.8169026,11.8514649 L69.680939,18.0006615 L75.984576,18.0006615 Z M63.6847042,12.1930869 C64.1321097,14.0150802 64.6519898,15.6093005 65.2443601,16.9757954 L61.7423395,16.9757954 L60.3227644,12.1930869 L63.6847042,12.1930869 Z M72.2296344,12.1930869 L75.7316549,12.1930869 C75.1727012,14.2428294 74.6186391,15.8370496 74.0694519,16.9757954 L70.4273505,16.9757954 C70.9765377,15.8370496 71.577293,14.2428294 72.2296344,12.1930869 Z M62.7614682,28.0785116 L58.979286,28.0785116 C60.1194711,26.2565183 61.0157209,24.3206794 61.6680622,22.270937 L65.1700828,22.270937 C64.4348064,24.434554 63.6319429,26.3703928 62.7614682,28.0785116 Z M72.1468833,28.0785116 C71.3775042,25.8010199 70.7795734,23.8651811 70.3530732,22.270937 L73.715013,22.270937 C74.2453535,23.9790557 74.9833637,25.9148945 75.9290655,28.0785116 L72.1468833,28.0785116 Z M75.3683282,40.6733068 L69.6311243,40.6733068 L67.5294672,39.6532091 L64.4178465,41.6934045 L58.3937824,41.6934045 C60.6802557,40.5599569 62.7685207,39.3509643 64.6586398,38.0663904 L60.2910876,35.7995065 L62.8683784,32.6258691 L59.282626,32.6258691 L59.4944329,30.2456411 L64.6579164,30.2456411 L66.037972,28.0921014 L70.1974448,28.0921014 L68.9608193,30.2456411 L73.9808727,30.2456411 C74.8414576,30.2456411 75.3098911,30.6612323 75.3861872,31.4924272 C75.3460548,32.0969326 74.98166,32.8147719 74.2929918,33.6459668 C73.0791525,35.006104 71.6297515,36.4040017 69.9447455,37.839702 C71.5579063,38.74646 73.3657492,39.6909855 75.3683282,40.6733068 Z M64.9826649,35.3461297 L66.9408919,36.3662275 C68.2780959,35.308343 69.5605343,34.1749125 70.7882456,32.9659017 C70.8769302,32.8903385 70.9178038,32.8147765 70.9108678,32.7392133 C70.9039318,32.6636501 70.8526543,32.6258691 70.7570337,32.6258691 L67.1712813,32.6258691 L64.9826649,35.3461297 Z M88.8645808,21.3480266 L86.2693784,21.3480266 C85.816728,25.3922988 84.614707,29.3504633 82.6632794,33.2226388 L88.5120468,41.7413823 L84.1867093,41.7413823 C83.3188439,40.3646088 82.2506758,38.6006442 80.982173,36.4494356 C79.4889831,39.0308859 78.4151007,40.7948505 77.7604936,41.7413823 L73.187994,41.7413823 C75.5287572,39.418077 77.5709864,36.5355007 79.3147429,33.0935669 C77.9164616,30.4260682 76.9363308,28.2748919 76.3743211,26.6399733 L79.587429,26.6399733 C79.913577,27.5004568 80.3379033,28.5330214 80.8604206,29.7376982 C81.3931476,28.3609247 81.8395309,26.9411483 82.1995839,25.4783265 C82.4772491,24.0155046 82.6804219,22.6387518 82.8091084,21.3480266 L79.2252573,21.3480266 L77.415465,25.8655421 L73.4608707,25.8655421 C76.1053057,19.6700613 77.7875508,15.1095674 78.5076568,12.1839237 L82.0915078,12.1839237 L80.300306,18.2503017 L88.950981,18.2503017 L88.8645808,21.3480266 Z M102.326842,28.4635417 L99.1758281,29.6354167 L98.5928965,41.7447917 L92.5971064,41.7447917 L91.4217607,38.8802083 L95.2017154,38.8802083 L95.5273448,31.0677083 L93.1225345,31.8489583 L91.556159,28.984375 L95.7379673,27.6822917 L96.028869,20.9114583 L92.5096009,20.9114583 L92.6376879,18.046875 L96.2872993,18.046875 L96.6140568,11.6666667 L100.002982,11.6666667 L99.8065674,18.046875 L103.065149,18.046875 L102.937062,20.9114583 L99.5481371,20.9114583 L99.2800112,26.5104167 L102.57332,25.46875 L102.326842,28.4635417 Z M121.481661,21.3020833 L115.746558,21.3020833 L115.535935,24.6875 L122.053098,24.6875 L121.925011,27.5520833 L115.407848,27.5520833 L115.327569,30.9375 L118.846837,30.9375 C119.628901,30.9375 120.16222,31.067707 120.446812,31.328125 C120.739372,31.675349 120.878058,32.2395794 120.862874,33.0208333 L120.360222,41.7447917 L106.283149,41.7447917 L106.855257,30.9375 L111.938644,30.9375 L112.018923,27.5520833 L106.805193,27.5520833 C106.13769,32.5868307 104.964389,37.3176862 103.285254,41.7447917 L99.3749561,41.7447917 C100.463259,39.4010299 101.330325,37.013901 101.976181,34.5833333 C102.622036,32.1527656 103.157083,29.4618203 103.581339,26.5104167 C103.918698,23.559013 104.179606,18.8281576 104.364069,12.3177083 L119.874918,12.3177083 C120.483189,12.3177083 120.969078,12.404513 121.332597,12.578125 C121.704085,12.838543 121.886218,13.4027734 121.879002,14.2708333 L121.481661,21.3020833 Z M117.910073,15.0520833 L107.612955,15.0520833 L107.544628,18.5677083 L118.232775,18.5677083 L118.467302,15.4427083 C118.443398,15.1822904 118.257657,15.0520833 117.910073,15.0520833 Z M112.14701,24.6875 L112.357633,21.3020833 L107.404589,21.3020833 L107.063623,24.6875 L112.14701,24.6875 Z M117.296926,33.9322917 C117.28099,33.7586797 117.186128,33.671875 117.012336,33.671875 L110.104143,33.671875 L109.942456,39.0104167 L117.111336,39.0104167 L117.296926,33.9322917 Z M136.415655,12.6172256 C137.139293,12.6172256 137.603109,12.7430458 137.807117,12.9946899 C137.950822,13.2463341 138.034869,13.8334949 138.059261,14.75619 L137.888231,31.6162618 L135.355511,31.6162618 L135.54003,15.8885829 L135.493833,15.3852971 C135.42583,15.3014158 135.331527,15.2594757 135.210921,15.2594757 L129.240938,15.2594757 L129.114166,31.6162618 L126.581446,31.6162618 L126.827501,12.6172256 L136.415655,12.6172256 Z M137.801388,40.927906 L134.234434,40.927906 L132.733774,34.6539211 C131.956933,36.7452599 130.707225,38.9620457 128.984613,41.3043451 L125.28555,41.3043451 C127.861789,37.7072425 129.396714,35.2394997 129.890369,33.9010429 C130.30363,32.6462397 130.617294,31.2659768 130.831372,29.7602129 C131.236492,26.4977244 131.524624,22.4405881 131.695777,17.5886822 L134.602184,17.5886822 C134.339811,25.2848088 133.822247,30.6803819 133.049477,33.7755632 L135.559555,33.7755632 L137.801388,40.927906 Z M145.015996,11.9270833 L144.580058,23.6458333 L154.928792,23.6458333 L154.866805,26.7708333 L144.401793,26.7708333 L143.825674,38.2291667 L147.662845,38.2291667 L146.798864,41.484375 L140.519858,41.484375 L141.146012,26.7708333 L138.587898,26.7708333 L138.649885,23.6458333 L141.324277,23.6458333 L141.876493,11.9270833 L145.015996,11.9270833 Z M149.308355,21.953125 L145.471184,21.953125 C147.959084,18.6544974 149.877514,15.4861263 151.226533,12.4479167 L154.947426,12.4479167 C154.246109,14.0972305 152.366437,17.2656016 149.308355,21.953125 Z M145.964456,28.59375 L148.871403,28.59375 L155.403429,41.484375 L151.566258,41.484375 C149.547927,37.2308815 147.680679,32.9340495 145.964456,28.59375 Z M178.501142,16.4121501 L173.931499,16.4121501 L171.169536,12.016983 L175.002141,12.016983 C176.239307,13.7183465 177.405629,15.1833875 178.501142,16.4121501 Z M163.365627,15.5729167 L185.584969,15.5729167 C186.23253,15.5729167 186.73413,15.746526 187.089782,16.09375 C187.36449,16.440974 187.485273,16.8749974 187.452136,17.3958333 L186.903478,27.2916667 L166.748228,27.2916667 C165.80787,33.8021159 164.866072,38.5329714 163.922806,41.484375 L160.037457,41.484375 L163.141569,27.6822917 C163.429305,24.644082 163.50399,20.6076641 163.365627,15.5729167 Z M183.843579,19.0885417 C183.892652,18.7413177 183.755301,18.5677083 183.43152,18.5677083 L167.040202,18.5677083 L166.959002,24.296875 L183.471737,24.296875 L183.843579,19.0885417 Z M196.744972,16.2239583 L194.792079,19.0885417 L190.490752,19.0885417 C191.429919,17.9600638 192.317657,16.7447982 193.153992,15.4427083 C193.990328,14.1406185 194.704276,12.9253529 195.29586,11.796875 L199.336501,11.796875 L198.318787,13.4895833 L206.400069,13.4895833 L206.26003,16.2239583 L201.828359,16.2239583 C202.034023,16.5711823 202.287115,16.9618034 202.587643,17.3958333 C202.809243,17.9166693 203.014904,18.263888 203.204632,18.4375 L199.163991,18.4375 C198.950359,18.0034701 198.621948,17.2656302 198.178748,16.2239583 L196.744972,16.2239583 Z M212.135173,13.4895833 L221.128858,13.4895833 L220.988819,16.2239583 L215.905432,16.2239583 C216.221896,16.8316003 216.688617,17.6562448 217.305608,18.6979167 L213.39531,18.6979167 C212.968046,17.8298568 212.58822,17.0052122 212.25582,16.2239583 L210.431015,16.2239583 L208.927783,18.3072917 L204.496112,18.3072917 C206.619199,15.876724 208.157895,13.7066068 209.112246,11.796875 L213.152887,11.796875 L212.135173,13.4895833 Z M217.188345,20.2604167 C218.317992,20.2604167 219.072533,20.434026 219.451988,20.78125 C219.744548,21.128474 219.851739,21.8229115 219.773563,22.8645833 L219.645476,25.7291667 L216.126208,25.7291667 C216.229039,25.9027786 216.29639,26.1631927 216.328262,26.5104167 L215.929793,32.109375 L197.942423,32.109375 L197.849064,33.9322917 L215.315061,33.9322917 C216.18402,33.9322917 216.804235,34.0624987 217.175722,34.3229167 C217.54721,34.5833346 217.721376,35.0607604 217.698224,35.7552083 L217.465954,41.7447917 L193.613136,41.7447917 L194.489226,25.7291667 L191.100301,25.7291667 L191.380379,20.2604167 L204.023675,20.2604167 L203.370831,18.828125 L207.281129,18.828125 L208.064317,20.2604167 L217.188345,20.2604167 Z M216.171759,23.3854167 C216.226783,23.0381927 216.037058,22.8645833 215.602578,22.8645833 L194.877999,22.8645833 L194.796592,24.8177083 L214.087395,24.8177083 C215.04325,24.8177083 215.667449,24.9913177 215.960008,25.3385417 L216.171759,23.3854167 Z M212.407141,27.8125 C212.462165,27.465276 212.27244,27.2916667 211.83796,27.2916667 L198.151917,27.2916667 L198.094414,29.5052083 L212.301829,29.5052083 L212.407141,27.8125 Z M213.326312,36.40625 L197.685121,36.40625 L197.675425,39.140625 L213.83799,39.140625 L213.895493,36.9270833 C213.974421,36.8402773 213.962469,36.7100703 213.859637,36.5364583 C213.677877,36.4496523 213.500104,36.40625 213.326312,36.40625 Z M236.444391,31.5885417 L236.224954,34.9739583 L225.485425,39.2708333 L225.716814,36.015625 L229.055467,34.84375 L229.568204,25.9895833 L226.652171,25.9895833 L226.78687,23.125 L229.702902,23.125 L229.997278,16.2239583 L226.683604,16.2239583 L226.818302,13.359375 L237.289511,13.359375 L237.022266,16.2239583 L233.576045,16.2239583 L233.149123,23.125 L235.932609,23.125 L235.797911,25.9895833 L233.014425,25.9895833 L232.755905,33.28125 L236.444391,31.5885417 Z M247.739861,25.078125 L250.737756,25.078125 L251.018962,21.0416667 L247.890724,21.0416667 L247.739861,25.078125 Z M241.092355,25.078125 L244.220593,25.078125 L244.501799,21.0416667 L241.373561,21.0416667 L241.092355,25.078125 Z M251.23928,14.921875 C251.302272,14.661457 251.203426,14.53125 250.942738,14.53125 L248.205529,14.53125 L247.924323,18.5677083 L251.052562,18.5677083 L251.23928,14.921875 Z M244.816605,14.53125 L241.818709,14.53125 L241.537503,18.5677083 L244.535398,18.5677083 L244.816605,14.53125 Z M252.398161,11.9270833 C253.354017,11.9270833 254.017678,12.0572904 254.389166,12.3177083 C254.681726,12.6649323 254.824396,13.2725651 254.81718,14.140625 L253.97469,27.6822917 L247.58787,27.6822917 L247.425055,31.5885417 L253.942219,31.5885417 L253.790228,34.1927083 L247.273065,34.1927083 L247.027714,38.6197917 L254.978653,38.6197917 L254.850566,41.484375 L235.299077,41.484375 L235.427164,38.6197917 L243.508446,38.6197917 L243.753796,34.1927083 L237.236633,34.1927083 L237.388624,31.5885417 L243.905787,31.5885417 L244.068602,27.6822917 L237.681782,27.6822917 L238.581775,11.9270833 L252.398161,11.9270833 Z M286.974982,12.3177083 L286.834943,15.0520833 L275.625423,15.0520833 L275.030539,27.03125 L287.934522,27.03125 L287.794483,29.765625 L274.8905,29.765625 L274.378152,41.2239583 L270.467854,41.2239583 L271.110546,29.765625 L258.988622,29.765625 L259.128661,27.03125 L271.250585,27.03125 L271.845468,15.0520833 L261.15732,15.0520833 L261.297359,12.3177083 L286.974982,12.3177083 Z M265.756319,16.875 C266.571758,19.1319557 267.739124,21.9097057 269.258452,25.2083333 L265.348154,25.2083333 C264.335018,22.6909596 263.297994,19.9132096 262.23705,16.875 L265.756319,16.875 Z M281.392327,25.3385417 L277.482029,25.3385417 C278.97294,22.647556 280.104298,19.8264036 280.876137,16.875 L284.525749,16.875 C283.517126,20.0868216 282.472662,22.907974 281.392327,25.3385417 Z M315.303223,22.734375 L314.676539,24.4270833 L291.605781,24.4270833 C293.429092,22.5173516 295.275903,20.3906367 297.146269,18.046875 C299.016636,15.7031133 300.606747,13.6198008 301.91665,11.796875 L306.739351,11.796875 C305.737191,13.1857708 304.533746,14.7482552 303.12898,16.484375 C301.732181,18.3073008 300.362914,19.9565898 299.021139,21.4322917 L314.531988,21.4322917 C312.436261,18.480888 310.981075,16.3541732 310.166388,15.0520833 L314.076686,15.0520833 C314.970301,16.2673672 316.405567,18.1770703 318.382526,20.78125 C320.280557,23.4722357 321.427251,25.0781224 321.822643,25.5989583 L317.260629,25.5989583 L315.303223,22.734375 Z M315.650958,27.9427083 C316.606813,27.9427083 317.274459,28.1163177 317.653915,28.4635417 C317.954443,28.8975716 318.065617,29.6354115 317.987441,30.6770833 L317.56958,41.7447917 L293.716763,41.7447917 L294.535349,27.9427083 L315.650958,27.9427083 Z M314.148855,31.4583333 C314.203879,31.1111094 314.057601,30.9375 313.710017,30.9375 L298.068826,30.9375 L297.873539,38.75 L313.775418,38.75 L314.148855,31.4583333 Z" id="数据账户管理平台" fill="#FFFFFF"></path>
                <g id="logo">
                    <g id="资源-1">
                        <path d="M0,30 C0.854882083,27.9008436 1.43924682,25.703151 1.73925418,23.458972 C1.88419202,22.257676 2.77700917,21.2058235 3.73939648,20.3666406 C4.53365588,19.6711535 5.42067551,19.0676315 6.15695978,18.3146661 C7.31646257,17.1651005 9.83838112,15.9063262 8.73105596,14.4406302 C7.6237308,12.9749341 6.07579459,15.3775261 4.67279622,15.9982915 C3.81476416,16.383396 3.10746746,17.147857 1.82621688,16.7340134 C3.73939648,15.3717783 5.4554606,13.9865518 6.46422802,11.9000903 C7.04397941,10.7792639 8.13391203,10.2447159 9.51951785,10.0262984 C11.3051521,9.73890702 13.3864596,9.91708968 14.8416356,7.90534995 C11.5834328,6.75578439 8.49915541,10.2619594 4.80034152,7.53174115 C11.3399372,7.82488036 15.815618,2.89324412 21.8218424,3.55999214 C22.3668087,3.62321825 22.9813452,3.2208703 23.5031214,3.364566 C24.5443983,3.71287502 25.3140763,4.59250802 25.5148588,5.66369711 C25.8627096,7.08915841 24.355356,6.66381915 23.7756046,6.89373226 C15.5083497,10.1010202 9.85577366,15.7683784 6.9570167,24.1429635 C6.48162056,25.52819 6.30769514,26.9823904 7.61793329,27.7468515 C8.92817144,28.5113126 10.1804344,27.6778776 11.2529745,26.7409816 C13.0270138,25.194816 14.1227439,23.1485893 15.4271845,21.2633018 C16.9345382,19.0906228 18.760755,17.6364224 21.5609543,17.5789441 C25.0394626,17.5099702 27.3584682,15.4867348 29.590511,13.0956385 C33.0881521,9.48804128 38.4199264,8.29827752 43.1393011,10.072281 C43.8639903,10.3424289 44.7973901,10.4918725 45.0061006,11.2620814 C45.2785837,12.2622034 44.1074859,12.3024382 43.5741146,12.745021 C41.7884803,14.2164649 40.0956063,14.8084911 37.678043,13.5037342 C35.0807567,12.1127599 32.3559252,13.2048472 30.2282376,15.0498999 C27.3294806,17.550205 24.2510007,19.4814751 20.3724639,20.0849971 C18.4708793,20.3838841 17.1200586,21.6369106 15.9083782,23.0393805 C14.5923425,24.5683027 13.2647118,26.0857293 11.9022961,27.5744167 C10.6348557,28.9604748 8.66722973,29.4841243 6.87005399,28.9136605 C5.13079982,28.46533 5.02644457,26.9249121 5.02644457,25.4362247 C5.02644457,24.8212072 4.87570921,24.1717026 4.23798267,24.0682417 C3.60025614,23.9647808 3.36255807,24.591294 3.07847989,25.1143464 C2.17406772,26.7812164 2.16247269,29.0056258 0,30 Z" id="路径" fill="#486CD8"></path>
                        <path d="M23.357513,48.5085768 C22.9534622,49.186852 22.4427869,49.0645401 22.0050653,49.1701731 C15.8769621,50.6545953 15.7086076,50.6990723 14.322489,44.5890352 C12.8409695,38.056466 12.4762015,31.5683738 17.4202115,26.0254193 C19.1027012,24.22492 21.1059555,22.7472873 23.3294539,21.6666667 C15.9723629,33.0083188 16.0789874,39.9245028 23.357513,48.5085768 Z" id="路径" fill="#4884ED"></path>
                        <path d="M30.0310881,41.8333687 C24.1824256,43.8541038 24.5200579,44.7611384 21.6284007,38.3889338 C18.6550583,31.8272853 19.858554,26.4195226 24.8032333,22.2747192 C25.2567788,21.7925959 25.9069435,21.57774 26.5404059,21.7006467 C23.7794451,24.7891567 22.4343616,28.3254432 23.2729967,32.3611727 C24.1116317,36.3969023 27.0032889,38.9630063 30.0310881,41.8333687 Z" id="路径" fill="#486CD8"></path>
                        <path d="M27.4103082,23.3333333 C27.2615225,28.0932831 29.826588,30.9995986 33.4807649,33.3280836 C34.0044905,33.6656282 35.7006475,33.9974516 34.7543705,34.9757586 C33.8080934,35.9540656 32.5404392,37.206985 30.9216508,36.4174741 C27.6483653,34.8613367 25.5058512,27.0920918 27.4103082,23.3333333 Z" id="路径" fill="#FFC361"></path>
                        <path d="M29.8988247,0 C31.8196221,0.0998784081 33.1878613,0.935702981 33.345735,2.32348718 C33.4541606,3.03142245 33.1606993,3.74100726 32.5457302,4.25788666 C31.930761,4.77476605 31.0587445,5.04476115 30.1685257,4.99392041 C28.1951037,4.99392041 26.6492565,4.05821743 26.695303,2.50221696 C26.7150372,1.15123007 28.1622133,0.257581158 29.8988247,0 Z" id="路径" fill="#FFA147"></path>
                    </g>
                </g>
            </g>
        </g>
    </g>
</svg>