<?xml version="1.0" encoding="UTF-8"?>
<svg width="118px" height="131px" viewBox="0 0 118 131" version="1.1" xmlns="http://www.w3.org/2000/svg" xmlns:xlink="http://www.w3.org/1999/xlink">
    <!-- Generator: Sketch 52.2 (67145) - http://www.bohemiancoding.com/sketch -->
    <title>分组 copy</title>
    <desc>Created with Sketch.</desc>
    <g id="模版页面" stroke="none" stroke-width="1" fill="none" fill-rule="evenodd">
        <g id="欢迎页" transform="translate(-579.000000, -275.000000)">
            <g id="分组" transform="translate(579.000000, 270.000000)">
                <g id="分组-copy" transform="translate(0.000000, 5.000000)">
                    <g id="logo">
                        <g id="资源-1">
                            <path d="M0,78.6 C2.23012717,73.1002104 3.75455693,67.3422556 4.53718481,61.4625066 C4.91528354,58.315111 7.24437174,55.5592575 9.75494733,53.3605984 C11.8269284,51.538422 14.1408926,49.9571946 16.0616342,47.9844252 C19.0864241,44.9725634 25.6653421,41.6745748 22.7766677,37.834451 C19.8879934,33.9943273 15.8498989,40.2891184 12.1899032,41.9155237 C9.95155867,42.9244974 8.10643685,44.9273855 4.76404405,43.8431152 C9.75494733,40.274059 14.2316363,36.6447656 16.8632035,31.1782365 C18.3755985,28.2416713 21.2189009,26.8411556 24.8335248,26.2689018 C29.4917012,25.5159364 34.9211991,25.982775 38.7173103,20.7120169 C30.2176508,17.7001551 22.1717098,26.8863335 12.5226301,19.7331618 C29.5824449,20.5011866 41.2581338,7.58029958 56.9265454,9.32717941 C58.3481966,9.49283181 59.9513352,8.43868019 61.3124907,8.81516291 C64.0288652,9.72773255 66.0367207,12.032371 66.5605011,14.8388864 C67.4679381,18.573595 63.5357112,17.4592062 62.0233163,18.0615785 C40.4565645,26.4646729 25.7107139,41.3131514 18.1487392,63.2545643 C16.9085754,66.8838577 16.4548569,70.6938629 19.8728695,72.6967509 C23.290882,74.699639 26.5576551,72.5160392 29.3555857,70.0613719 C33.9835142,66.0104178 36.8419406,60.6493039 40.2448292,55.7098506 C44.1770561,50.0174319 48.9411001,46.2074267 56.2459676,46.0568336 C65.3203373,45.8761219 71.369917,40.5752452 77.1926375,34.3105727 C86.3169184,24.8586682 100.225895,21.7414871 112.537307,26.3893763 C114.427801,27.0971638 116.862757,27.4887059 117.407219,29.5066532 C118.118044,32.126973 115.063007,32.2323881 113.671603,33.3919549 C109.013427,37.247138 104.597234,38.7982468 98.2905468,35.3797837 C91.5150175,31.7354309 84.4067613,34.5966996 78.8562719,39.4307377 C71.2942973,45.9815371 63.2634801,51.0414649 53.145558,52.6226923 C48.1849026,53.4057763 44.6610224,56.6887057 41.500117,60.363177 C38.0669805,64.3689532 34.6035961,68.3446107 31.049468,72.2449717 C27.7431017,75.8764439 22.6101645,77.2484055 17.92188,75.7537906 C13.3846952,74.5791645 13.1124641,70.5432698 13.1124641,66.6429088 C13.1124641,65.0315627 12.7192414,63.3298609 11.055607,63.0587933 C9.39197255,62.7877257 8.77189063,64.4291904 8.03081711,65.7995875 C5.67148101,70.1667871 5.64123311,75.9947396 0,78.6 Z" id="路径" fill="#486CD8"></path>
                            <path d="M60.9326425,127.092471 C59.878597,128.869552 58.5464007,128.549095 57.4045181,128.825854 C41.4181619,132.71504 40.9789763,132.831569 37.3630148,116.823272 C33.4981814,99.7079408 32.5466126,82.7091393 45.44403,68.1865985 C49.8331337,63.4692904 55.0590143,59.5978928 60.8594449,56.7666667 C41.6670338,86.4817953 41.9451846,104.602197 60.9326425,127.092471 Z" id="路径" fill="#4884ED"></path>
                            <path d="M78.3419689,109.603426 C63.0845885,114.897752 63.9653683,117.274182 56.4219149,100.579007 C48.6653695,83.3874876 51.8049236,69.2191491 64.7040869,58.3597644 C65.8872492,57.0966012 67.5833309,56.5336789 69.2358415,56.8556945 C62.0333351,64.9475906 58.5244217,74.2126612 60.7121652,84.7862726 C62.8999088,95.359884 70.4433623,102.083076 78.3419689,109.603426 Z" id="路径" fill="#486CD8"></path>
                            <path d="M71.5051518,61.1333333 C71.1170152,73.6044017 77.8084904,81.2189483 87.3411257,87.3195791 C88.7073666,88.2039458 93.132124,89.0733231 90.6635751,91.6364874 C88.1950263,94.1996517 84.8881023,97.4823008 80.6651759,95.4137822 C72.1261704,91.3367021 66.5370031,70.9812804 71.5051518,61.1333333 Z" id="路径" fill="#FFC361"></path>
                            <path d="M77.9969339,0 C83.0077097,0.261681429 86.5770295,2.45154181 86.988874,6.08753641 C87.2717232,7.94232682 86.5061721,9.80143902 84.9019048,11.155663 C83.2976374,12.5098871 81.0228119,13.2172742 78.7005018,13.0840715 C73.5524445,13.0840715 69.5197996,10.6325297 69.6399209,6.55580844 C69.6914015,3.01622279 73.4666435,0.674862633 77.9969339,0 Z" id="路径" fill="#FFA147"></path>
                        </g>
                    </g>
                </g>
            </g>
        </g>
    </g>
</svg>